<svg width="151" height="53" viewBox="0 0 151 53" fill="none" xmlns="http://www.w3.org/2000/svg">
<g clip-path="url(#clip0_523_3)">
<path d="M19.4185 52.5629V10.5668C19.3652 8.8194 19.6736 7.07978 20.3245 5.45677C20.8288 4.21493 21.6267 3.11334 22.6499 2.24602C23.6501 1.46411 24.7941 0.885426 26.0172 0.542663C27.2231 0.18559 28.474 0.00284432 29.7318 0L36.5721 0.150743L44.1221 0.331629C46.7193 0.331629 49.2561 0.52759 51.6721 0.708477V5.23066H31.1512C30.3504 5.17584 29.5467 5.28091 28.787 5.53973C28.0274 5.79855 27.327 6.20593 26.7269 6.73806C26.1579 7.37126 25.724 8.11341 25.4514 8.91935C25.1788 9.72528 25.0734 10.5781 25.1414 11.4261V24.9926L48.6823 25.3544V29.7108L25.1414 30.0725V52.5629H19.4185Z" fill="#FFFFFE"/>
<path d="M65.217 53C62.6636 53.1003 60.1717 52.2026 58.271 50.4977C57.3387 49.5813 56.6138 48.4762 56.145 47.2567C55.6761 46.0373 55.4743 44.7318 55.553 43.428V40.7147C55.5069 39.3563 55.7526 38.0038 56.2735 36.748C56.7944 35.4923 57.5784 34.3623 58.573 33.434C60.5863 31.5749 63.5761 30.6453 67.5424 30.6453H80.4982V25.9272C80.5108 24.563 80.2167 23.2134 79.6375 21.9778C78.981 20.7683 77.9083 19.8366 76.6175 19.3549C74.6817 18.6652 72.6312 18.3531 70.5775 18.4354H58.6938V14.9986C60.3699 14.7122 62.3178 14.4559 64.5375 14.2147C67.1364 13.955 69.7474 13.8343 72.3593 13.853C74.986 13.738 77.6104 14.1269 80.0905 14.9986C82.0061 15.7006 83.611 17.057 84.6205 18.8274C85.6999 20.932 86.2198 23.278 86.1305 25.6408V52.5629H81.7364L80.6643 48.2216C80.1187 48.6164 79.5313 48.95 78.9127 49.2164C77.9312 49.6988 76.693 50.2264 75.1981 50.8143C73.6106 51.4328 71.9806 51.9366 70.3208 52.3217C68.6541 52.7575 66.9398 52.9854 65.217 53ZM67.5726 48.7793C68.5566 48.8139 69.5411 48.7227 70.502 48.508C71.6043 48.2668 72.7217 47.9955 73.8693 47.6789C75.0169 47.3624 76.0739 47.0458 77.0554 46.7142C78.0369 46.3825 78.8221 46.0961 79.4563 45.8549C79.78 45.7163 80.113 45.6005 80.4529 45.5083V33.4491L68.7957 34.037C66.6717 33.9105 64.5816 34.6132 62.9671 35.9966C61.7666 37.2985 61.1313 39.0219 61.2004 40.7901V42.5085C61.1414 43.7993 61.4786 45.0772 62.1668 46.1715C62.7585 47.06 63.6061 47.7485 64.5979 48.1462C65.5487 48.5161 66.5533 48.7299 67.5726 48.7793Z" fill="#FFFFFE"/>
<path d="M109.928 53C108.977 53 107.814 53 106.425 53C105.036 53 103.601 52.8794 102.091 52.789C100.581 52.6985 99.2372 52.593 98.0141 52.4724C96.791 52.3518 95.8548 52.1257 95.13 52.0051V48.5683H110.864C112.231 48.5837 113.596 48.4676 114.941 48.2216C115.986 48.0483 116.937 47.5149 117.629 46.7142C118.346 45.6438 118.686 44.3658 118.595 43.0813V41.2875C118.634 40.5571 118.506 39.8275 118.221 39.1537C117.936 38.4799 117.501 37.8797 116.949 37.3985C115.399 36.3321 113.525 35.8366 111.649 35.9966H106.289C104.242 36.0361 102.203 35.746 100.249 35.1374C98.6066 34.6493 97.1795 33.618 96.2021 32.213C95.1308 30.5053 94.6042 28.513 94.6921 26.5V24.4952C94.6094 22.4535 95.0955 20.4289 96.0964 18.6465C97.1231 17.0475 98.6609 15.8417 100.46 15.2247C102.931 14.3806 105.536 13.9924 108.146 14.0791C109.485 14.0791 111.025 14.1243 112.767 14.2147C114.503 14.3052 116.21 14.4408 117.886 14.6067C119.562 14.7725 120.906 14.9534 121.963 15.1493V18.5711H107.361C105.412 18.4585 103.469 18.8807 101.744 19.7921C100.43 20.591 99.7657 22.1738 99.7657 24.4952V26.0026C99.6802 27.1879 100.011 28.3659 100.702 29.3339C101.374 30.1196 102.296 30.6516 103.314 30.8413C104.596 31.0984 105.902 31.2196 107.21 31.2031H112.646C115.57 31.0093 118.466 31.8765 120.8 33.6451C121.773 34.5204 122.536 35.6043 123.03 36.8156C123.524 38.0269 123.738 39.3341 123.654 40.6394V43.2924C123.842 45.3186 123.272 47.3428 122.054 48.9741C120.835 50.6054 119.054 51.7282 117.055 52.1257C114.727 52.7237 112.332 53.0176 109.928 53Z" fill="#FFFFFE"/>
<path d="M145.202 52.5629C143.087 52.6441 140.983 52.2311 139.056 51.3569C137.427 50.5265 136.155 49.1338 135.477 47.4377C134.627 45.1297 134.257 42.6729 134.39 40.2173L134.602 19.1138H128.562V15.4207L134.692 14.4409L135.613 3.79865H139.977V14.4409H151V19.0836H139.977V40.1872C139.933 41.5397 140.116 42.8901 140.521 44.1818C140.81 45.0666 141.331 45.8579 142.031 46.473C142.574 46.97 143.218 47.3452 143.918 47.5734C144.545 47.7788 145.194 47.9104 145.851 47.9653L150.502 48.4025V52.5327L145.202 52.5629Z" fill="#FFFFFE"/>
<path d="M6.62888 8.06458C6.73524 8.98076 6.47473 9.90179 5.90408 10.6272C5.14096 11.1666 4.20613 11.408 3.27668 11.3055C2.36362 11.4081 1.44463 11.172 0.694584 10.6422C0.140329 9.927 -0.109236 9.02254 -1.62814e-05 8.12488C-0.100941 7.21148 0.153087 6.29424 0.709684 5.56231C1.47458 5.02664 2.40794 4.78567 3.33708 4.88398C4.25455 4.78599 5.17665 5.02147 5.93428 5.54723C6.47846 6.26744 6.72689 7.16778 6.62888 8.06458ZM6.03998 47.1061C6.04555 47.263 5.99764 47.4171 5.90408 47.5432C5.79535 47.6859 5.64894 47.7955 5.48128 47.8598C5.22562 47.964 4.95595 48.0301 4.68098 48.0558C4.23343 48.083 3.78463 48.083 3.33708 48.0558C2.90463 48.0823 2.47094 48.0823 2.03848 48.0558C1.75868 48.0298 1.48406 47.9638 1.22308 47.8598C1.04715 47.8171 0.885654 47.7287 0.754984 47.6035C0.677737 47.4713 0.640991 47.3193 0.649284 47.1664V17.9229C0.637687 17.7602 0.674456 17.5976 0.754984 17.4556C0.865945 17.3088 1.01848 17.1985 1.19288 17.1391C1.45386 17.0351 1.72848 16.9691 2.00828 16.9431C2.44071 16.9156 2.87446 16.9156 3.30688 16.9431C3.7544 16.9147 4.20327 16.9147 4.65078 16.9431C4.92575 16.9688 5.19542 17.0349 5.45108 17.1391C5.62131 17.1986 5.76897 17.3092 5.87388 17.4556C5.96141 17.5791 6.00885 17.7265 6.00978 17.8777L6.03998 47.1061Z" fill="#FFFFFE"/>
</g>
<defs>
<clipPath id="clip0_523_3">
<rect width="151" height="53" fill="white"/>
</clipPath>
</defs>
</svg>
