<svg width="31" height="30" viewBox="0 0 31 30" fill="none" xmlns="http://www.w3.org/2000/svg">
<path d="M30.185 14.9979C30.1669 12.1177 29.3251 9.30279 27.7588 6.88559C26.1926 4.46838 23.9674 2.54982 21.346 1.35643C18.7246 0.163051 15.8164 -0.255312 12.9649 0.150744C10.1134 0.556801 7.43763 1.77032 5.25354 3.64801C3.06945 5.5257 1.46825 7.98915 0.63902 10.7475C-0.190213 13.5058 -0.212855 16.4438 0.573769 19.2146C1.36039 21.9853 2.92343 24.4732 5.07832 26.3843C7.23322 28.2954 9.88997 29.55 12.7349 30V19.3899H8.90135V14.9979H12.7349V11.6534C12.7349 7.84701 14.9867 5.74612 18.4339 5.74612C19.5666 5.764 20.6966 5.86489 21.8146 6.04797V9.77585H19.922C18.0475 9.77585 17.4619 10.944 17.4619 12.1454V14.9979H21.6365L20.9664 19.3899H17.4498V30C21.01 29.4227 24.2478 27.5952 26.5819 24.8457C28.9159 22.0961 30.1934 18.6046 30.185 14.9979Z" fill="#FFFFFE"/>
</svg>
