<svg id="Layer_1" data-name="Layer 1" xmlns="http://www.w3.org/2000/svg" viewBox="0 0 100 100"><path d="M33.45,80.52c0,.41-.47.74-1.05.74s-1.13-.26-1.13-.74.46-.74,1.05-.74S33.45,80,33.45,80.52Zm-6.27-.93c-.14.41.26.89.86,1a.93.93,0,0,0,1.25-.41c.13-.41-.26-.89-.86-1.08a1,1,0,0,0-1.25.48Zm8.91-.35c-.59.14-1,.54-.93,1s.59.68,1.19.54,1-.54.93-1S36.67,79.18,36.09,79.24ZM49.35,0C21.39,0,0,21.77,0,50.45,0,73.39,14.07,93,34.17,99.92c2.58.47,3.49-1.16,3.49-2.51s-.06-8.35-.06-12.69c0,0-14.11,3.1-17.08-6.16,0,0-2.29-6-5.6-7.57,0,0-4.62-3.25.32-3.19A10.61,10.61,0,0,1,23,73.14c4.42,8,11.82,5.68,14.7,4.32a11.67,11.67,0,0,1,3.23-7c-11.27-1.28-22.64-3-22.64-22.85,0-5.68,1.53-8.54,4.75-12.18a20.05,20.05,0,0,1,.53-14C27.8,20.08,37.5,27,37.5,27a46.41,46.41,0,0,1,25.32,0s9.7-7,13.91-5.59c2.77,7.18,1,12.7.53,14,3.22,3.66,5.2,6.52,5.2,12.18,0,20-11.88,21.55-23.15,22.85,1.86,1.63,3.43,4.74,3.43,9.6,0,7-.06,15.59-.06,17.28,0,1.35.93,3,3.49,2.5C86.33,93,100,73.39,100,50.45,100,21.77,77.32,0,49.35,0ZM19.6,71.32c-.27.2-.2.68.14,1.07s.78.48,1.05.21.2-.68-.14-1.08S19.86,71.05,19.6,71.32Zm-2.18-1.68c-.14.27.06.6.46.81a.59.59,0,0,0,.87-.15c.14-.26-.06-.59-.46-.8S17.56,69.44,17.42,69.64ZM24,77c-.32.27-.2.89.26,1.29s1.05.53,1.31.2.15-.89-.26-1.28S24.21,76.67,24,77Zm-2.3-3c-.32.21-.32.75,0,1.22s.87.69,1.13.48a1,1,0,0,0,0-1.28c-.28-.48-.8-.68-1.13-.42Z" transform="translate(0 0)"/></svg>