<svg width="30" height="30" viewBox="0 0 30 30" fill="none" xmlns="http://www.w3.org/2000/svg">
<path d="M10.035 24.1554C10.035 24.2784 9.894 24.3774 9.72 24.3774C9.546 24.3774 9.381 24.2994 9.381 24.1554C9.381 24.0114 9.519 23.9334 9.696 23.9334C9.873 23.9334 10.035 23.9994 10.035 24.1554ZM8.154 23.8764C8.112 23.9994 8.232 24.1434 8.412 24.1764C8.4447 24.1929 8.48034 24.2029 8.51688 24.2057C8.55342 24.2084 8.59016 24.204 8.62498 24.1926C8.65981 24.1811 8.69204 24.163 8.71984 24.1391C8.74764 24.1152 8.77046 24.0861 8.787 24.0534C8.826 23.9304 8.709 23.7864 8.529 23.7294C8.45975 23.7028 8.3831 23.7028 8.31384 23.7294C8.24459 23.7559 8.18764 23.8073 8.154 23.8734V23.8764ZM10.827 23.7714C10.65 23.8134 10.527 23.9334 10.548 24.0714C10.569 24.2094 10.725 24.2754 10.905 24.2334C11.085 24.1914 11.205 24.0714 11.184 23.9334C11.163 23.7954 11.001 23.7534 10.827 23.7714ZM14.805 0C6.417 0 0 6.53083 0 15.1346C0 22.0164 4.221 27.8993 10.251 29.9752C11.025 30.1162 11.298 29.6272 11.298 29.2222C11.298 28.8173 11.28 26.7173 11.28 25.4153C11.28 25.4153 7.047 26.3453 6.156 23.5674C6.156 23.5674 5.469 21.7674 4.476 21.2964C4.476 21.2964 3.09 20.3215 4.572 20.3395C5.05719 20.4092 5.51972 20.5901 5.92353 20.8679C6.32734 21.1458 6.66151 21.5132 6.9 21.9414C8.226 24.3414 10.446 23.6454 11.31 23.2374C11.3858 22.4479 11.7274 21.7075 12.279 21.1375C8.898 20.7535 5.487 20.2375 5.487 14.2826C5.487 12.5787 5.946 11.7207 6.912 10.6287C6.45823 9.25519 6.51468 7.76413 7.071 6.42883C8.34 6.02384 11.25 8.09979 11.25 8.09979C13.7331 7.39576 16.3629 7.39576 18.846 8.09979C18.846 8.09979 21.756 5.99984 23.019 6.42283C23.85 8.57678 23.319 10.2327 23.178 10.6227C24.144 11.7207 24.738 12.5787 24.738 14.2766C24.738 20.2765 21.174 20.7415 17.793 21.1315C18.351 21.6204 18.822 22.5534 18.822 24.0114C18.822 26.1113 18.804 28.6883 18.804 29.1952C18.804 29.6002 19.083 30.0952 19.851 29.9452C25.899 27.8993 30 22.0164 30 15.1346C30 6.53083 23.196 0 14.805 0ZM5.88 21.3954C5.799 21.4554 5.82 21.5994 5.922 21.7164C6.024 21.8334 6.156 21.8604 6.237 21.7794C6.318 21.6984 6.297 21.5754 6.195 21.4554C6.093 21.3354 5.958 21.3144 5.88 21.3954ZM5.226 20.8915C5.184 20.9725 5.244 21.0715 5.364 21.1344C5.38355 21.1501 5.40619 21.1614 5.43043 21.1676C5.45467 21.1739 5.47995 21.1749 5.50462 21.1706C5.52929 21.1664 5.55277 21.157 5.57352 21.143C5.59427 21.129 5.61182 21.1107 5.625 21.0895C5.667 21.0115 5.607 20.9125 5.487 20.8495C5.367 20.7865 5.268 20.8315 5.226 20.8915ZM7.2 23.0994C7.104 23.1804 7.14 23.3664 7.278 23.4864C7.416 23.6064 7.593 23.6454 7.671 23.5464C7.749 23.4474 7.716 23.2794 7.593 23.1624C7.47 23.0454 7.263 23.0004 7.2 23.0994ZM6.51 22.1994C6.414 22.2624 6.414 22.4244 6.51 22.5654C6.606 22.7064 6.771 22.7724 6.849 22.7094C6.8939 22.6555 6.91849 22.5876 6.91849 22.5174C6.91849 22.4473 6.8939 22.3793 6.849 22.3254C6.765 22.1814 6.609 22.1214 6.51 22.1994Z" fill="#FFFFFE"/>
</svg>
