<svg id="Layer_1" data-name="Layer 1" xmlns="http://www.w3.org/2000/svg" viewBox="0 0 40 40"><defs><style>.cls-1{fill:#fff;}.cls-2{fill:#000333;}</style></defs><rect class="cls-1" width="40" height="40" rx="2"/><path class="cls-2" d="M13.62,33.57A16.05,16.05,0,0,1,3.21,30.33a1.64,1.64,0,1,1,1.86-2.69c3.82,2.64,6.48,3.3,14.64,2l1.52-.23c8.17-1.27,10.5-2.71,13.34-6.39a1.64,1.64,0,1,1,2.59,2c-3.6,4.66-6.92,6.3-15.43,7.62l-1.51.24A49.31,49.31,0,0,1,13.62,33.57Z"/><path class="cls-2" d="M15.67,27.1a1.4,1.4,0,0,1-1.17-.59L4.21,12A1.4,1.4,0,0,1,6.5,10.41L16.79,24.89a1.4,1.4,0,0,1-.33,1.95A1.38,1.38,0,0,1,15.67,27.1Z"/><path class="cls-2" d="M23.51,26.15a1.17,1.17,0,0,1-.45-.06,1.41,1.41,0,0,1-.91-1.76L27.56,7.41a1.4,1.4,0,0,1,2.67.85L24.82,25.18A1.39,1.39,0,0,1,23.51,26.15Z"/></svg>