<svg id="Layer_1" data-name="Layer 1" xmlns="http://www.w3.org/2000/svg" viewBox="0 0 200 42.59"><defs><style>.cls-1{fill:#000333;}</style></defs><path class="cls-1" d="M17.45,71.29c-6.67.1-11-1.43-16.34-5.08A2.57,2.57,0,0,1,4,62c6,4.15,10.16,5.19,23,3.2l2.38-.37c12.82-2,16.47-4.25,20.93-10a2.57,2.57,0,0,1,4.06,3.14c-5.64,7.31-10.85,9.89-24.2,12l-2.38.37A77.55,77.55,0,0,1,17.45,71.29Z" transform="translate(0 -28.71)"/><path class="cls-1" d="M20.66,61.14a2.18,2.18,0,0,1-1.82-.92L2.69,37.5A2.2,2.2,0,1,1,6.27,35L22.42,57.67a2.19,2.19,0,0,1-1.76,3.47Z" transform="translate(0 -28.71)"/><path class="cls-1" d="M33,59.66a2.21,2.21,0,0,1-2.12-2.87l8.48-26.55a2.2,2.2,0,1,1,4.19,1.34L35,58.13A2.23,2.23,0,0,1,33,59.66Z" transform="translate(0 -28.71)"/><path class="cls-1" d="M69.06,60.42,69.1,37c0-2.6,1.65-2.76,2.09-2.76.8,0,2.08.24,2.12,2.56v8.58A27.12,27.12,0,0,0,77,45.26c5.54-.8,7.5-4.37,8.18-8.58.28-1.68,1.13-2.44,2.25-2.44s2.08.92,1.84,2.72c-.68,4.82-2.64,9.07-7.38,11.19,5,2.09,7,6.42,7.7,11.35.24,1.76-.72,2.73-1.84,2.73s-2-.76-2.25-2.45c-.68-4.21-2.64-7.82-8.18-8.62-.76-.08-2.24-.12-4-.16v9.38a1.86,1.86,0,0,1-2.12,1.93A1.91,1.91,0,0,1,69.06,60.42Zm.48-23.9v0Z" transform="translate(0 -28.71)"/><path class="cls-1" d="M91.56,36.64v-.28a1.8,1.8,0,0,1,1.32-2,2.7,2.7,0,0,1,.57-.08,1.11,1.11,0,0,1,.36,0c2.6,0,16,0,16,0,1.2,0,1.72,1.4,1.72,2.12,0,.56-.48,2.09-1.72,2.13H96.09c.92,3.37,3,6.09,7.78,6.77a35.89,35.89,0,0,0,4.21.16,8.67,8.67,0,0,1,2.65.37c.64.16,1.08.72,1,2,0,1-.12,1.85-.2,2.45-1.48,10.34-9.78,12-17.92,12a2.07,2.07,0,0,1,0-4.13c6.09,0,12.75-.73,13.87-8.5v-.12a35.34,35.34,0,0,1-4.21-.21C95.33,48.19,92.48,43,91.6,37v-.2a.14.14,0,0,0,0-.08Z" transform="translate(0 -28.71)"/><path class="cls-1" d="M112.9,36.36c0-.76.16-2.08,1.8-2.08h2a3.23,3.23,0,0,1,.64,0h13.87c1.21,0,1.73,1.4,1.73,2.12,0,.56-.48,2.09-1.73,2.13H124a13.68,13.68,0,0,1,2.65,6.77c.44,2.85.24,13.6.28,15a2,2,0,0,1-2.08,2.09c-.77,0-2.17-.48-2.17-1.85,0-.32.28-12.11-.08-14.63-.48-3.41-2-5.5-4.17-6.7l-1-.64h-2.57A1.92,1.92,0,0,1,112.9,36.36Z" transform="translate(0 -28.71)"/><path class="cls-1" d="M132.83,46.27c1.48-10.35,9.82-12,17.92-12h.32a2,2,0,0,1,2.09,2.08c0,1.36.2,11.11-.2,14-1.49,10.34-9.83,12-17.93,12h-.32a2,2,0,0,1-2.08-2.09C132.63,58.86,132.43,49.11,132.83,46.27Zm4,11.91c5.53-.2,11.07-1.49,12.07-8.5.24-1.81.16-7.9.12-11.31-5.58.2-11.07,1.48-12.07,8.5A111.88,111.88,0,0,0,136.8,58.18Z" transform="translate(0 -28.71)"/><path class="cls-1" d="M176.54,49a1.43,1.43,0,0,1-1.2.69h-6.7a5.16,5.16,0,0,0,.12,1,8.57,8.57,0,0,0,4.17,6.69c2.69,1.57,3.37,3.05,2.85,4.06s-1.69,1.4-5.05-.49c-3-1.76-5.34-4.73-6.06-9.7-.12-.76-.16-1.24-.2-1.56h-3.33V60.38A1.88,1.88,0,0,1,159,62.31a1.91,1.91,0,0,1-2.13-1.89l0-23.42c0-2.56,1.64-2.72,2.09-2.72h.36a9.41,9.41,0,0,1,1.12,0,44.16,44.16,0,0,1,4.85.24c8,1.12,10.83,6.33,11.71,12.39A2.4,2.4,0,0,1,176.54,49Zm-15.4-3.57h11.47a8.71,8.71,0,0,0-7.82-6.93c-.72-.08-2-.12-3.65-.16Z" transform="translate(0 -28.71)"/><path class="cls-1" d="M179.83,46.27c1.48-10.35,9.82-12,17.92-12a2,2,0,1,1,0,4.09c-5.69,0-11.82.64-13.55,7.05,4.57,0,14.08,0,14.08,0,1.2,0,1.72,1.41,1.72,2.17,0,.56-.48,2.08-1.72,2.13l-14.52,0c0,2.61,0,6.18,0,8.51,4.45,0,14.28,0,14.28,0,1.2,0,1.72,1.4,1.72,2.12,0,.56-.44,2.13-1.68,2.17l-16.33,0a2.72,2.72,0,0,1-.92-.16,1.82,1.82,0,0,1-1.24-1.93C179.63,58.86,179.43,49.11,179.83,46.27Z" transform="translate(0 -28.71)"/></svg>